<svg width="53" height="47" viewBox="0 0 53 47" fill="none" xmlns="http://www.w3.org/2000/svg">
<g clip-path="url(#clip0_43_11)">
<g filter="url(#filter0_d_43_11)">
<path fill-rule="evenodd" clip-rule="evenodd" d="M32.158 11.1311L28.171 8.91917C28.0281 8.83964 27.8662 8.84247 27.7255 8.92689L24.0334 11.1431C23.8934 11.2271 23.8148 11.3687 23.8171 11.5326L23.8905 15.8341C23.8935 15.9976 23.9767 16.1363 24.1197 16.2159L27.8813 18.3034C28.0243 18.3829 28.1862 18.3801 28.3268 18.2956L32.0189 16.0794C32.1589 15.9954 32.2376 15.8538 32.2352 15.6899L32.158 11.1311ZM18.6163 13.0799C19.0031 13.6103 19.2474 14.2696 19.283 14.9909C18.682 14.764 18.088 14.608 17.5278 14.5444C17.1933 14.5062 16.8636 14.6202 16.623 14.8555C16.381 15.0925 16.2614 15.4154 16.2918 15.7529C16.3737 16.6594 16.5123 17.5812 16.6965 18.4851C16.5465 18.512 16.3922 18.5276 16.2353 18.53C16.0783 18.5325 15.9234 18.5224 15.7726 18.5004C15.9262 17.5911 16.0336 16.6653 16.0843 15.7563C16.1028 15.4179 15.9727 15.0987 15.7224 14.8707C15.4739 14.6442 15.1404 14.5414 14.8073 14.5907C14.249 14.673 13.6608 14.8496 13.0679 15.0964C13.0788 14.3748 13.2997 13.7073 13.6686 13.1638C14.2153 13.9549 15.134 14.4673 16.1656 14.4497C17.196 14.4328 18.0968 13.8886 18.6163 13.0799ZM15.3417 15.7146C15.3484 15.5989 15.3059 15.4964 15.221 15.4184C15.1351 15.3401 15.0297 15.3073 14.9145 15.3245C12.6943 15.6522 9.7799 17.7132 8.47141 19.6404C7.36524 21.2687 6.62453 24.3552 9.3411 24.7493C11.1338 25.0089 12.6494 24.6107 13.9125 22.2978C14.6451 20.957 15.2154 17.9831 15.3417 15.7146ZM17.03 15.6863C17.2331 17.9484 17.9045 20.9014 18.6821 22.217C20.0239 24.4854 21.552 24.832 23.3343 24.5118C26.0359 24.0258 25.1904 20.966 24.0292 19.3761C22.656 17.4952 19.6732 15.5341 17.4432 15.2816C17.328 15.2685 17.2233 15.3046 17.1403 15.3855C17.0577 15.4671 17.0194 15.5706 17.03 15.6863ZM16.0759 9.25C15.8625 9.25348 15.6567 9.287 15.4622 9.3466C15.3283 8.94479 15.1181 8.46764 14.8203 8.05517C14.4695 7.56889 13.9957 7.16167 13.3734 7.03056C13.3258 7.02064 13.2768 7.0202 13.229 7.02929C13.1813 7.03837 13.1358 7.05679 13.0952 7.08349C13.0546 7.11019 13.0197 7.14464 12.9925 7.18487C12.9652 7.2251 12.9462 7.27032 12.9365 7.31792C12.9265 7.36549 12.9261 7.41454 12.9352 7.46227C12.9443 7.51 12.9627 7.55547 12.9894 7.59607C13.0161 7.63666 13.0505 7.67158 13.0908 7.69883C13.131 7.72607 13.1762 7.74511 13.2238 7.75483C13.6333 7.84144 13.9636 8.13489 14.2192 8.48869C14.501 8.87876 14.6883 9.33071 14.7955 9.68098C14.2325 10.0942 13.8724 10.7649 13.8848 11.5166C13.9061 12.7477 14.9209 13.7287 16.1514 13.7077C17.3824 13.6864 18.3635 12.6716 18.3425 11.4411C18.3295 10.6898 17.9465 10.0316 17.3698 9.63759C17.4654 9.28334 17.6371 8.82534 17.9056 8.42612C18.1486 8.06383 18.4687 7.75917 18.8751 7.65892C19.0738 7.61065 19.1952 7.41053 19.1473 7.21249C19.099 7.01381 18.8989 6.89241 18.7008 6.94031C18.084 7.09241 17.624 7.51572 17.2898 8.01321C17.0065 8.43521 16.8128 8.9202 16.6926 9.32562C16.4916 9.27177 16.284 9.24632 16.0759 9.25ZM19.2783 25.1944C18.7931 26.0604 18.1647 26.7094 17.4508 27.0444C17.3393 27.0966 17.2623 27.1818 17.2203 27.2979L16.6199 28.9784C16.5885 29.0674 16.5083 29.1242 16.4142 29.1261C16.3198 29.1274 16.2381 29.0735 16.2033 28.9853L15.5461 27.3265C15.5006 27.2118 15.4204 27.1301 15.3071 27.0813C14.5828 26.7716 13.9325 26.1439 13.4176 25.2948C14.3639 25.5604 15.374 25.6656 16.3551 25.6489C17.3352 25.6319 18.3418 25.4917 19.2783 25.1944ZM13.2022 24.4529C13.5951 24.0993 13.9505 23.6618 14.2779 23.1415C14.9132 23.251 15.6001 23.3052 16.315 23.2933C17.0294 23.2809 17.7142 23.2031 18.3456 23.0725C18.6908 23.5812 19.0611 24.0064 19.4656 24.347C18.4882 24.7233 17.3871 24.8892 16.3425 24.9068C15.2985 24.924 14.1918 24.7963 13.2022 24.4529ZM14.6679 22.4529C14.8979 21.9868 15.0856 21.45 15.2402 20.9088C15.5845 20.9344 15.9297 20.9441 16.2748 20.9378C16.6269 20.9317 16.9724 20.9103 17.3078 20.8735C17.4809 21.4084 17.6866 21.9385 17.9323 22.397C17.4213 22.4873 16.8735 22.5409 16.3024 22.5513C15.7309 22.5611 15.1819 22.5262 14.6679 22.4529ZM15.4313 20.1786C15.5059 19.8646 15.5745 19.549 15.6369 19.232C15.8346 19.2613 16.0377 19.2753 16.2469 19.2718C16.4554 19.2687 16.6581 19.2474 16.8548 19.2116C16.9283 19.5259 17.0074 19.8394 17.093 20.1507C16.8233 20.1758 16.5455 20.1919 16.2626 20.1964C15.979 20.2013 15.7015 20.1947 15.4313 20.1786ZM32.5034 31.4228L32.43 27.1214C32.427 26.9578 32.3438 26.8191 32.2008 26.7396L28.4392 24.6521C28.2962 24.5725 28.1343 24.5754 27.9937 24.6598L24.3016 26.876C24.1616 26.96 24.083 27.1016 24.0853 27.2655L24.1587 31.567C24.1616 31.7305 24.2449 31.8692 24.3878 31.9488L28.1495 34.0363C28.2924 34.1158 28.4543 34.113 28.595 34.0285L32.2871 31.8123C32.4277 31.7279 32.506 31.5857 32.5034 31.4228ZM41.2838 26.5851C41.4267 26.6646 41.51 26.8033 41.513 26.9669L41.5863 31.2683C41.5893 31.4319 41.5107 31.5734 41.37 31.6579L37.6786 33.8737C37.5386 33.9577 37.3767 33.9606 37.2331 33.8814L33.4714 31.7939C33.3285 31.7144 33.2452 31.5757 33.2423 31.4121L33.1689 27.1107C33.1659 26.9471 33.2446 26.8056 33.3852 26.7211L37.0766 24.5053C37.2166 24.4213 37.3785 24.4184 37.5221 24.4976L41.2838 26.5851ZM37.8799 23.8491L41.6416 25.9366C41.7845 26.0162 41.9464 26.0133 42.0871 25.9289L45.7785 23.7131C45.9185 23.629 45.9972 23.4875 45.9948 23.3236L45.9215 19.0221C45.9185 18.8586 45.8352 18.7198 45.6923 18.6403L41.7053 16.4284L37.793 18.7768C37.6531 18.8608 37.5744 19.0023 37.5767 19.1663L37.6501 23.4677C37.6531 23.6313 37.7367 23.7706 37.8799 23.8491ZM36.608 18.7956C36.751 18.8751 36.8343 19.0138 36.8372 19.1774L36.9106 23.4788C36.9136 23.6424 36.8349 23.7839 36.6943 23.8683L33.0028 26.0842C32.8628 26.1682 32.7009 26.171 32.5573 26.0919L28.7957 24.0044C28.6527 23.9249 28.5695 23.7861 28.5665 23.6226L28.4931 19.3211C28.4902 19.1576 28.5688 19.016 28.7094 18.9316L32.4009 16.7158C32.5409 16.6317 32.7028 16.6289 32.8464 16.7081L36.608 18.7956ZM33.2036 16.06C33.0606 15.9805 32.9773 15.8417 32.9744 15.6782L32.8969 11.1204L36.8091 8.77203C36.9491 8.68799 37.111 8.68516 37.2546 8.7643L41.0163 10.8518C41.1592 10.9313 41.2425 11.0701 41.2455 11.2336L41.3227 15.7924L37.4111 18.1404C37.2711 18.2244 37.1092 18.2273 36.9656 18.1481L33.2036 16.06Z" fill="#FDE767"/>
</g>
</g>
<defs>
<filter id="filter0_d_43_11" x="7.47232" y="6.92987" width="38.5226" height="28.1641" filterUnits="userSpaceOnUse" color-interpolation-filters="sRGB">
<feFlood flood-opacity="0" result="BackgroundImageFix"/>
<feColorMatrix in="SourceAlpha" type="matrix" values="0 0 0 0 0 0 0 0 0 0 0 0 0 0 0 0 0 0 127 0" result="hardAlpha"/>
<feOffset dy="1"/>
<feComposite in2="hardAlpha" operator="out"/>
<feColorMatrix type="matrix" values="0 0 0 0 1 0 0 0 0 1 0 0 0 0 1 0 0 0 0.25 0"/>
<feBlend mode="normal" in2="BackgroundImageFix" result="effect1_dropShadow_43_11"/>
<feBlend mode="normal" in="SourceGraphic" in2="effect1_dropShadow_43_11" result="shape"/>
</filter>
<clipPath id="clip0_43_11">
<rect width="38" height="38" fill="white" transform="translate(0 13.5571) rotate(-30.9747)"/>
</clipPath>
</defs>
</svg>
